<svg width="185" height="50" viewBox="0 0 185 50" fill="none" xmlns="http://www.w3.org/2000/svg">
<path d="M78.55 16.45V28.4C78.55 30.25 78.025 31.675 76.975 32.675C75.9417 33.675 74.5417 34.175 72.775 34.175C70.925 34.175 69.4417 33.65 68.325 32.6C67.2083 31.55 66.65 30.0583 66.65 28.125H70.9C70.9 28.8583 71.05 29.4167 71.35 29.8C71.65 30.1667 72.0833 30.35 72.65 30.35C73.1667 30.35 73.5667 30.1833 73.85 29.85C74.1333 29.5167 74.275 29.0333 74.275 28.4V16.45H78.55ZM90.8531 34.2C89.4865 34.2 88.2531 33.9083 87.1531 33.325C86.0698 32.7417 85.2115 31.9083 84.5781 30.825C83.9615 29.7417 83.6531 28.475 83.6531 27.025C83.6531 25.5917 83.9698 24.3333 84.6031 23.25C85.2365 22.15 86.1031 21.3083 87.2031 20.725C88.3031 20.1417 89.5365 19.85 90.9031 19.85C92.2698 19.85 93.5031 20.1417 94.6031 20.725C95.7031 21.3083 96.5698 22.15 97.2031 23.25C97.8365 24.3333 98.1531 25.5917 98.1531 27.025C98.1531 28.4583 97.8281 29.725 97.1781 30.825C96.5448 31.9083 95.6698 32.7417 94.5531 33.325C93.4531 33.9083 92.2198 34.2 90.8531 34.2ZM90.8531 30.5C91.6698 30.5 92.3615 30.2 92.9281 29.6C93.5115 29 93.8031 28.1417 93.8031 27.025C93.8031 25.9083 93.5198 25.05 92.9531 24.45C92.4031 23.85 91.7198 23.55 90.9031 23.55C90.0698 23.55 89.3781 23.85 88.8281 24.45C88.2781 25.0333 88.0031 25.8917 88.0031 27.025C88.0031 28.1417 88.2698 29 88.8031 29.6C89.3531 30.2 90.0365 30.5 90.8531 30.5ZM107.196 22.025C107.596 21.375 108.171 20.85 108.921 20.45C109.671 20.05 110.529 19.85 111.496 19.85C112.646 19.85 113.688 20.1417 114.621 20.725C115.554 21.3083 116.288 22.1417 116.821 23.225C117.371 24.3083 117.646 25.5667 117.646 27C117.646 28.4333 117.371 29.7 116.821 30.8C116.288 31.8833 115.554 32.725 114.621 33.325C113.688 33.9083 112.646 34.2 111.496 34.2C110.513 34.2 109.654 34.0083 108.921 33.625C108.188 33.225 107.613 32.7 107.196 32.05V34H102.921V15.5H107.196V22.025ZM113.296 27C113.296 25.9333 112.996 25.1 112.396 24.5C111.813 23.8833 111.088 23.575 110.221 23.575C109.371 23.575 108.646 23.8833 108.046 24.5C107.463 25.1167 107.171 25.9583 107.171 27.025C107.171 28.0917 107.463 28.9333 108.046 29.55C108.646 30.1667 109.371 30.475 110.221 30.475C111.071 30.475 111.796 30.1667 112.396 29.55C112.996 28.9167 113.296 28.0667 113.296 27ZM142.264 16.45V34H137.989V23.475L134.064 34H130.614L126.664 23.45V34H122.389V16.45H127.439L132.364 28.6L137.239 16.45H142.264ZM146.988 27C146.988 25.5667 147.255 24.3083 147.788 23.225C148.338 22.1417 149.08 21.3083 150.013 20.725C150.946 20.1417 151.988 19.85 153.138 19.85C154.121 19.85 154.98 20.05 155.713 20.45C156.463 20.85 157.038 21.375 157.438 22.025V20.05H161.713V34H157.438V32.025C157.021 32.675 156.438 33.2 155.688 33.6C154.955 34 154.096 34.2 153.113 34.2C151.98 34.2 150.946 33.9083 150.013 33.325C149.08 32.725 148.338 31.8833 147.788 30.8C147.255 29.7 146.988 28.4333 146.988 27ZM157.438 27.025C157.438 25.9583 157.138 25.1167 156.538 24.5C155.955 23.8833 155.238 23.575 154.388 23.575C153.538 23.575 152.813 23.8833 152.213 24.5C151.63 25.1 151.338 25.9333 151.338 27C151.338 28.0667 151.63 28.9167 152.213 29.55C152.813 30.1667 153.538 30.475 154.388 30.475C155.238 30.475 155.955 30.1667 156.538 29.55C157.138 28.9333 157.438 28.0917 157.438 27.025ZM171.581 22.025C171.998 21.375 172.573 20.85 173.306 20.45C174.039 20.05 174.898 19.85 175.881 19.85C177.031 19.85 178.073 20.1417 179.006 20.725C179.939 21.3083 180.673 22.1417 181.206 23.225C181.756 24.3083 182.031 25.5667 182.031 27C182.031 28.4333 181.756 29.7 181.206 30.8C180.673 31.8833 179.939 32.725 179.006 33.325C178.073 33.9083 177.031 34.2 175.881 34.2C174.914 34.2 174.056 34 173.306 33.6C172.573 33.2 171.998 32.6833 171.581 32.05V40.65H167.306V20.05H171.581V22.025ZM177.681 27C177.681 25.9333 177.381 25.1 176.781 24.5C176.198 23.8833 175.473 23.575 174.606 23.575C173.756 23.575 173.031 23.8833 172.431 24.5C171.848 25.1167 171.556 25.9583 171.556 27.025C171.556 28.0917 171.848 28.9333 172.431 29.55C173.031 30.1667 173.756 30.475 174.606 30.475C175.456 30.475 176.181 30.1667 176.781 29.55C177.381 28.9167 177.681 28.0667 177.681 27Z" fill="white"/>
<rect width="50" height="50" rx="10" fill="black"/>
<path d="M48.627 25.2444C48.627 38.4572 38.5777 48.627 25.0635 48.627C11.5493 48.627 1.5 38.4572 1.5 25.2444C1.5 12.0218 11.5591 1.5 25.0635 1.5C38.5679 1.5 48.627 12.0218 48.627 25.2444Z" stroke="white" stroke-linejoin="round"/>
<path d="M6.24699 10.5892C16.4793 -1.65754 33.4723 -1.28644 43.1564 10.5892" stroke="#F5F5F5" stroke-width="0.8" stroke-linecap="round" stroke-linejoin="round"/>
<path d="M6.6088 10.951L21.0831 21.4449" stroke="#F5F5F5" stroke-width="0.8" stroke-linecap="round" stroke-linejoin="round"/>
<path d="M21.0831 21.4449H28.6821" stroke="#F5F5F5" stroke-width="0.8" stroke-linecap="round" stroke-linejoin="round"/>
<path d="M28.6821 21.4449L43.1564 10.5892" stroke="#F5F5F5" stroke-width="0.8" stroke-linecap="round" stroke-linejoin="round"/>
<path d="M23.2543 33.3862C21.264 30.1295 19.4548 26.8728 21.2641 21.9877L16.0172 28.863L3.8949 14.5697C-2.25661 27.5965 3.53312 43.6991 19.9975 48.2224L23.2543 33.3862ZM23.2543 33.3862C25.4254 33.3862 26.511 33.3862 26.511 33.3862M26.511 33.3862C26.511 33.3862 31.3961 27.2347 28.6822 21.9877L33.9291 28.863L46.0512 14.5697C53.4693 30.4914 43.8801 44.7847 29.7677 48.2224L26.511 33.3862Z" stroke="#F5F5F5" stroke-width="0.8" stroke-linejoin="round"/>
</svg>
